<svg xmlns="http://www.w3.org/2000/svg" id="Laag_1" data-name="Laag 1" viewBox="0 0 50 50"><defs><style>      .cls-1 {        fill: none;        stroke: #000;        stroke-miterlimit: 10;        stroke-width: .81px;      }      .cls-2 {        fill: #fff;        stroke-width: 0px;      }    </style></defs><g id="Group_430" data-name="Group 430"><g id="Group_429" data-name="Group 429"><path id="Path_1245" data-name="Path 1245" class="cls-2" d="M45.28,50H4.72C2.11,50,0,47.89,0,45.28V4.72C0,2.11,2.11,0,4.72,0h40.56c2.61,0,4.72,2.11,4.72,4.72v40.56c0,2.61-2.11,4.72-4.72,4.72"></path></g></g><g><g><path class="cls-1" d="M44.3,13.56c-7.9,7.9-16.58-.79-24.48,7.1-7.9,7.9.79,16.58-7.11,24.48"></path><path class="cls-1" d="M44.3,13.56c-7.9,7.9-16.58-.79-24.48,7.1-7.9,7.9.79,16.58-7.11,24.48"></path></g><g><path class="cls-1" d="M36.91,6.17c-7.9,7.9.79,16.58-7.1,24.48-7.9,7.9-16.58-.79-24.48,7.11"></path><path class="cls-1" d="M36.91,6.17c-7.9,7.9.79,16.58-7.1,24.48-7.9,7.9-16.58-.79-24.48,7.11"></path></g><line class="cls-1" x1="35.77" y1="7.19" x2="43.21" y2="14.63"></line><line class="cls-1" x1="33.89" y1="11.31" x2="39.12" y2="16.55"></line><line class="cls-1" x1="22.8" y1="18.21" x2="32.19" y2="27.6"></line><line class="cls-1" x1="19.59" y1="20.99" x2="29.45" y2="30.85"></line><line class="cls-1" x1="27.68" y1="17.09" x2="33.45" y2="22.87"></line><line class="cls-1" x1="6.15" y1="36.81" x2="13.59" y2="44.25"></line><line class="cls-1" x1="10.27" y1="34.93" x2="15.51" y2="40.16"></line><line class="cls-1" x1="17.17" y1="23.84" x2="26.56" y2="33.23"></line><line class="cls-1" x1="16.05" y1="28.72" x2="21.53" y2="34.19"></line></g></svg>