<svg xmlns="http://www.w3.org/2000/svg" xmlns:xlink="http://www.w3.org/1999/xlink" id="Laag_1" viewBox="0 0 384.89 82.1"><defs><style> .st0 { fill: gray; } .st1 { fill: url(#radial-gradient); } .st2 { fill: #f7931e; } .st3 { fill: #29abe2; } </style><radialGradient id="radial-gradient" cx="-233.51" cy="-1559.71" fx="-233.51" fy="-1559.71" r="46.15" gradientTransform="translate(187.43 265.19) scale(.67 .12)" gradientUnits="userSpaceOnUse"><stop offset=".12" stop-color="#000" stop-opacity=".3"></stop><stop offset="1" stop-color="#000" stop-opacity="0"></stop></radialGradient></defs><path class="st2" d="M51.55,15.04c0,3.25-2.64,5.89-5.89,5.89s-5.89-2.64-5.89-5.89,2.64-5.89,5.89-5.89,5.89,2.64,5.89,5.89Z"></path><path class="st3" d="M59.67,21.08c-7.25,0-14.02,2.07-19.75,5.65C38.13,14,29.02,3.63,16.98,0c12.89,8.97,16.67,29.7,8.17,48.96-2.34,5.29-5.38,9.97-8.88,13.91,12.6-3.48,22.14-14.3,23.75-27.57.72,2.7,1.11,5.54,1.11,8.47,0,2.76-.35,5.44-.99,8,9.42-7.73,16.56-18.39,20.17-30.68-.21,0-.42-.02-.64-.02Z"></path><path class="st1" d="M61.85,71.31c0,3.17-13.85,5.74-30.93,5.74S0,74.48,0,71.31s13.85-5.74,30.93-5.74,30.93,2.57,30.93,5.74Z"></path><g><path class="st0" d="M68.62,43.56l6.76-29.33h16.83l-.99,4.15h-12.03l-1.88,8.31h9.68l-.98,4.2h-9.63l-1.97,8.52h12.07l-.98,4.15h-16.87Z"></path><path class="st0" d="M96.02,44.03c-1.97,0-3.43-.63-4.37-1.91-.94-1.27-1.41-2.87-1.41-4.8s.22-3.75.66-5.46c.44-1.71,1.08-3.35,1.91-4.9.83-1.56,1.96-2.83,3.4-3.81,1.44-.98,3.06-1.48,4.86-1.48,1.6,0,4.28.31,8.05.94l1.8.3-3.21,13.87-1.16,6.68-4.58.17c.31-2.05.53-3.35.64-3.9-1.34,1.77-2.87,3.04-4.58,3.81-.69.31-1.36.47-2.01.47ZM105.61,26.26c-1.94-.43-3.48-.64-4.62-.64s-2.21.64-3.21,1.93c-1.88,2.37-2.83,5.48-2.83,9.33,0,1.06.19,1.85.58,2.38.38.53.98.79,1.8.79s1.71-.38,2.68-1.13c.97-.76,1.78-1.52,2.44-2.29l.98-1.15,2.18-9.2Z"></path><path class="st0" d="M121.84,25.66c-1.11,0-1.99.29-2.63.86s-.96,1.21-.96,1.93.23,1.21.69,1.5c.46.29,1.3.61,2.53.96,1.23.36,2.13.65,2.7.88.57.23,1.14.53,1.71.9,1.03.66,1.54,1.78,1.54,3.38,0,2.6-.87,4.58-2.61,5.93-1.74,1.36-4.02,2.03-6.85,2.03-2.17,0-4.24-.31-6.21-.94l-.94-.3.86-3.47c2.71.51,4.87.77,6.47.77,3.05,0,4.58-1.04,4.58-3.13,0-.54-.23-.94-.68-1.2-.46-.26-1.51-.6-3.15-1.03-1.64-.43-2.93-1.01-3.87-1.73-.94-.73-1.41-1.79-1.41-3.19,0-2.48.84-4.45,2.53-5.91,1.68-1.46,3.75-2.18,6.21-2.18s4.52.29,6.47.86l.94.26-.86,3.47c-2.83-.43-5.17-.64-7.02-.64Z"></path><path class="st0" d="M132.54,22.15h4.58l-.21,17.56h.94l8.26-17.56h4.71l-14.81,30.61h-4.67l4.62-9.2h-3.25l-.17-21.41Z"></path><path class="st0" d="M169.28,44.03c-4.28,0-7.19-1.18-8.71-3.55-1.53-2.37-2.29-6.26-2.29-11.69s.77-9.28,2.31-11.58c1.54-2.3,4.44-3.45,8.69-3.45,2.54,0,5.34.36,8.39,1.07l-.17,3.85c-2.57-.46-5.14-.68-7.71-.68s-4.31.76-5.22,2.29c-.91,1.53-1.37,4.4-1.37,8.61s.44,7.08,1.33,8.6c.88,1.53,2.61,2.29,5.18,2.29s5.17-.22,7.79-.64l.13,3.94c-2.94.63-5.72.94-8.35.94Z"></path><path class="st0" d="M182.42,43.56V13.24h4.67v30.31h-4.67Z"></path><path class="st0" d="M193,18.51v-4.92h4.67v4.92h-4.67ZM193,43.56v-21.41h4.67v21.41h-4.67Z"></path><path class="st0" d="M207.98,43.56h-4.67v-21.41h4.62v1.33c2.08-1.2,4.05-1.8,5.91-1.8,2.85,0,4.8.81,5.84,2.42,1.04,1.61,1.56,4.27,1.56,7.98v11.48h-4.62v-11.35c0-2.31-.25-3.95-.75-4.92-.5-.97-1.52-1.46-3.06-1.46-1.46,0-2.85.29-4.19.86l-.64.26v16.61Z"></path><path class="st0" d="M225.89,18.51v-4.92h4.67v4.92h-4.67ZM225.89,43.56v-21.41h4.67v21.41h-4.67Z"></path><path class="st0" d="M243.58,21.68c1.51,0,3.3.2,5.35.6l1.07.21-.17,3.68c-2.25-.23-3.93-.34-5.01-.34-2.17,0-3.63.49-4.37,1.46-.74.97-1.11,2.8-1.11,5.48s.36,4.54,1.07,5.57c.71,1.03,2.2,1.54,4.45,1.54l5.01-.34.13,3.72c-2.88.51-5.05.77-6.51.77-3.25,0-5.54-.88-6.87-2.63-1.33-1.76-1.99-4.63-1.99-8.63s.7-6.84,2.1-8.54c1.4-1.7,3.68-2.55,6.85-2.55Z"></path><path class="st0" d="M269.35,26.56c-3.37-.46-5.81-.69-7.32-.69s-2.56.18-3.15.54c-.59.36-.88.92-.88,1.69s.32,1.31.96,1.63c.64.31,2.15.68,4.54,1.09,2.38.41,4.07,1.06,5.07,1.95,1,.89,1.5,2.46,1.5,4.71s-.72,3.91-2.16,4.97c-1.44,1.06-3.55,1.58-6.32,1.58-1.74,0-3.94-.24-6.59-.73l-1.33-.22.17-3.9c3.43.46,5.89.69,7.41.69s2.59-.19,3.23-.56.96-.98.96-1.84-.31-1.45-.92-1.78-2.08-.69-4.41-1.07c-2.33-.38-4.03-.99-5.12-1.82-1.08-.83-1.63-2.34-1.63-4.54s.75-3.84,2.25-4.92c1.5-1.08,3.42-1.63,5.76-1.63,1.83,0,4.07.23,6.72.69l1.33.26-.09,3.9Z"></path></g><g><path class="st3" d="M73,62.37l-2.06,8.91c-.31,1.4-.67,2.27-1.09,2.63s-1.29.54-2.61.54l.3-1.57c.54-.01.91-.1,1.1-.28.19-.18.36-.63.52-1.35l2.06-8.88h1.78Z"></path><path class="st3" d="M76.86,65.17c1.99,0,2.99.96,2.99,2.88,0,.92-.15,1.78-.45,2.6-.3.82-.77,1.5-1.4,2.04-.63.54-1.37.82-2.22.82-1.97,0-2.96-.95-2.96-2.85,0-.92.16-1.79.48-2.62.32-.83.79-1.51,1.42-2.06.63-.54,1.34-.82,2.13-.82ZM75.79,72.04c.69,0,1.26-.41,1.69-1.22.43-.81.65-1.74.65-2.78,0-.44-.11-.78-.32-1.02-.21-.25-.53-.37-.94-.37-.68,0-1.24.41-1.66,1.23-.43.82-.64,1.75-.64,2.8,0,.91.41,1.36,1.23,1.36Z"></path><path class="st3" d="M82.78,73.51c-.65,0-1.13-.19-1.45-.58-.31-.39-.47-.91-.47-1.56,0-.39.11-1.08.32-2.05l.91-3.98h1.73l-.88,3.86c-.19.77-.29,1.36-.29,1.78,0,.69.28,1.04.83,1.04.22,0,.5-.11.82-.33.32-.22.59-.44.8-.66l.32-.34,1.23-5.34h1.73l-1.84,8h-1.66l.18-1.06c-.09.1-.2.21-.34.34-.14.13-.41.31-.81.54s-.78.34-1.13.34Z"></path><path class="st3" d="M89.71,65.33h1.74l-.35,6.51h.34l2.86-6.35h1.98l-.14,6.35h.34l2.7-6.51h1.76l-3.42,8h-2.94l.14-5.54-2.43,5.54h-2.9l.32-8Z"></path><path class="st3" d="M109.5,65.16c.75,0,1.3.23,1.67.69.37.46.55,1.12.55,1.98s-.15,1.72-.44,2.58c-.29.86-.75,1.59-1.38,2.19-.63.6-1.36.9-2.19.9-.54,0-1.11-.08-1.71-.22l-.32-.08-.83,3.58h-1.71l2.64-11.44h1.7l-.22,1.09c.09-.1.2-.21.34-.35s.41-.33.81-.56c.4-.23.77-.35,1.11-.35ZM108.97,66.64c-.22,0-.51.12-.87.37-.36.25-.66.49-.9.72l-.35.37-.83,3.68c.65.16,1.21.24,1.68.24s.88-.24,1.24-.73.62-1.04.78-1.66c.17-.62.25-1.23.25-1.82,0-.78-.33-1.17-.99-1.17Z"></path><path class="st3" d="M114.71,73.51c-.74,0-1.28-.24-1.63-.71s-.53-1.07-.53-1.79.08-1.4.25-2.04c.17-.64.4-1.25.71-1.83.31-.58.73-1.06,1.27-1.42.54-.37,1.14-.55,1.82-.55.6,0,1.6.12,3.01.35l.67.11-1.2,5.18-.43,2.5-1.71.06c.12-.77.2-1.25.24-1.46-.5.66-1.07,1.14-1.71,1.42-.26.12-.51.18-.75.18ZM118.3,66.87c-.73-.16-1.3-.24-1.73-.24s-.83.24-1.2.72c-.7.89-1.06,2.05-1.06,3.49,0,.39.07.69.22.89.14.2.37.3.67.3s.64-.14,1-.42c.36-.28.67-.57.91-.86l.37-.43.82-3.44Z"></path><path class="st3" d="M120.43,73.33l1.84-8h1.71l-.27,1.17c.36-.29.8-.57,1.32-.84.52-.27.97-.44,1.35-.5l-.5,1.79c-.48.14-1.17.42-2.06.85l-.42.19-1.25,5.34h-1.73Z"></path><path class="st3" d="M128.15,71.44c0,.39.21.59.62.59l1.15-.1-.14,1.26c-.55.2-1.11.3-1.67.3s-.99-.15-1.3-.45c-.3-.3-.46-.68-.46-1.14s.08-1.03.24-1.69l.8-3.41h-.93l.38-1.49h.91l.5-2.19h1.74l-.51,2.19h1.92l-.37,1.49h-1.9l-.83,3.55c-.11.45-.16.81-.16,1.07Z"></path><path class="st3" d="M136.43,65.16c.65,0,1.13.19,1.45.58s.47.86.47,1.42-.11,1.29-.34,2.18l-.91,3.98h-1.73l.9-3.86c.19-.9.29-1.5.29-1.82s-.06-.57-.18-.74-.32-.26-.59-.26-.57.11-.89.33c-.32.22-.59.44-.8.66l-.3.34-1.23,5.34h-1.73l1.84-8h1.66l-.18,1.06c.08-.1.2-.21.34-.34.14-.13.41-.31.81-.54s.78-.34,1.13-.34Z"></path><path class="st3" d="M141.07,70.88c0,.36.12.64.37.84.25.2.55.3.91.3.77,0,1.53-.06,2.27-.19l.42-.08-.18,1.31c-.97.3-1.95.45-2.94.45-1.73,0-2.59-.86-2.59-2.59,0-1.51.34-2.82,1.01-3.92.34-.55.8-1,1.38-1.33.58-.33,1.23-.5,1.97-.5,1.75,0,2.62.73,2.62,2.19,0,.98-.35,1.66-1.05,2.05-.7.38-1.84.58-3.42.58h-.67c-.06.23-.1.53-.1.89ZM142.12,68.68c.9,0,1.53-.1,1.9-.29.37-.19.56-.53.56-1.01,0-.53-.33-.8-.99-.8-1.11,0-1.85.7-2.22,2.1h.75Z"></path><path class="st3" d="M146.44,73.33l1.84-8h1.71l-.27,1.17c.36-.29.8-.57,1.32-.84.52-.27.97-.44,1.35-.5l-.5,1.79c-.48.14-1.17.42-2.06.85l-.42.19-1.25,5.34h-1.73Z"></path><path class="st3" d="M155.18,73.33l1.84-8h1.73l-1.84,8h-1.73ZM157.27,64.15l.43-1.87h1.76l-.43,1.87h-1.76Z"></path><path class="st3" d="M164.41,65.16c.65,0,1.13.19,1.45.58s.47.86.47,1.42-.11,1.29-.34,2.18l-.91,3.98h-1.73l.9-3.86c.19-.9.29-1.5.29-1.82s-.06-.57-.18-.74-.32-.26-.59-.26-.57.11-.89.33c-.32.22-.59.44-.8.66l-.3.34-1.23,5.34h-1.73l1.84-8h1.66l-.18,1.06c.08-.1.2-.21.34-.34.14-.13.41-.31.81-.54s.78-.34,1.13-.34Z"></path><path class="st3" d="M170.44,73.33l2.62-11.33h1.73l-2.61,11.33h-1.74Z"></path><path class="st3" d="M176.26,70.88c0,.36.12.64.37.84.25.2.55.3.91.3.77,0,1.53-.06,2.27-.19l.42-.08-.18,1.31c-.97.3-1.95.45-2.94.45-1.73,0-2.59-.86-2.59-2.59,0-1.51.34-2.82,1.01-3.92.34-.55.8-1,1.38-1.33.58-.33,1.23-.5,1.97-.5,1.75,0,2.62.73,2.62,2.19,0,.98-.35,1.66-1.05,2.05-.7.38-1.84.58-3.42.58h-.67c-.06.23-.1.53-.1.89ZM177.32,68.68c.9,0,1.53-.1,1.9-.29.37-.19.56-.53.56-1.01,0-.53-.33-.8-.99-.8-1.11,0-1.85.7-2.22,2.1h.75Z"></path><path class="st3" d="M183.78,70.88c0,.36.12.64.37.84.25.2.55.3.91.3.77,0,1.53-.06,2.27-.19l.42-.08-.18,1.31c-.97.3-1.95.45-2.94.45-1.73,0-2.59-.86-2.59-2.59,0-1.51.34-2.82,1.01-3.92.34-.55.8-1,1.38-1.33.58-.33,1.23-.5,1.97-.5,1.75,0,2.62.73,2.62,2.19,0,.98-.35,1.66-1.05,2.05-.7.38-1.84.58-3.42.58h-.67c-.06.23-.1.53-.1.89ZM184.84,68.68c.9,0,1.53-.1,1.9-.29.37-.19.56-.53.56-1.01,0-.53-.33-.8-.99-.8-1.11,0-1.85.7-2.22,2.1h.75Z"></path><path class="st3" d="M194.26,61.83c.44,0,.85.07,1.23.22l.21.08-.32,1.3c-.39-.07-.75-.11-1.07-.11s-.56.12-.71.37c-.15.25-.3.64-.44,1.18l-.11.46h1.89l-.37,1.49h-1.84l-1.52,6.51-.99,3.46h-1.55l2.32-9.95h-.8l.35-1.5h.78l.11-.48c.26-1.11.59-1.89,1-2.34.41-.45,1.02-.68,1.83-.68Z"></path><path class="st3" d="M198.22,66.64c-.42,0-.74.11-.98.32-.24.21-.36.45-.36.72s.09.45.26.56c.17.11.49.23.94.36.46.13.79.24,1.01.33.21.09.43.2.64.34.38.25.58.67.58,1.26,0,.97-.33,1.71-.98,2.22s-1.5.76-2.56.76c-.81,0-1.58-.12-2.32-.35l-.35-.11.32-1.3c1.01.19,1.82.29,2.42.29,1.14,0,1.71-.39,1.71-1.17,0-.2-.08-.35-.26-.45s-.56-.22-1.18-.38-1.1-.38-1.45-.65c-.35-.27-.53-.67-.53-1.19,0-.93.31-1.66.94-2.21.63-.54,1.4-.82,2.32-.82s1.69.11,2.42.32l.35.1-.32,1.3c-1.06-.16-1.93-.24-2.62-.24Z"></path><path class="st3" d="M203.69,71.44c0,.39.21.59.62.59l1.15-.1-.14,1.26c-.55.2-1.11.3-1.67.3s-.99-.15-1.3-.45c-.3-.3-.46-.68-.46-1.14s.08-1.03.24-1.69l.8-3.41h-.93l.38-1.49h.91l.5-2.19h1.74l-.51,2.19h1.92l-.37,1.49h-1.9l-.83,3.55c-.11.45-.16.81-.16,1.07Z"></path><path class="st3" d="M206.36,73.33l1.84-8h1.73l-1.84,8h-1.73ZM208.46,64.15l.43-1.87h1.76l-.43,1.87h-1.76Z"></path><path class="st3" d="M209.99,73.33l1.84-8h1.73l-1.84,8c-.19.81-.38,1.4-.56,1.76s-.4.63-.66.8c-.55.38-1.27.77-2.16,1.15l-.56-1.39c.89-.45,1.44-.79,1.66-1.02s.4-.67.55-1.3ZM212.07,64.23l.43-1.86h1.74l-.42,1.86h-1.76Z"></path><path class="st3" d="M213.64,73.33l2.62-11.33h1.73l-2.61,11.33h-1.74Z"></path><path class="st3" d="M217.22,75.41h-1.42l1.74-4.24h1.9l-2.22,4.24Z"></path><path class="st3" d="M224.84,65.33h1.71l-.08,6.56h.38l3.06-6.56h1.76l-3.89,8h-2.88l-.06-8Z"></path><path class="st3" d="M235.29,65.17c2,0,2.99.96,2.99,2.88,0,.92-.15,1.78-.45,2.6-.3.82-.76,1.5-1.4,2.04s-1.37.82-2.22.82c-1.97,0-2.96-.95-2.96-2.85,0-.92.16-1.79.48-2.62.32-.83.79-1.51,1.42-2.06.63-.54,1.34-.82,2.13-.82ZM234.22,72.04c.69,0,1.26-.41,1.69-1.22.43-.81.65-1.74.65-2.78,0-.44-.11-.78-.32-1.02-.21-.25-.53-.37-.94-.37-.68,0-1.24.41-1.66,1.23s-.64,1.75-.64,2.8c0,.91.41,1.36,1.23,1.36Z"></path><path class="st3" d="M240.92,70.88c0,.36.12.64.37.84.25.2.55.3.91.3.77,0,1.53-.06,2.27-.19l.42-.08-.18,1.31c-.97.3-1.95.45-2.94.45-1.73,0-2.59-.86-2.59-2.59,0-1.51.34-2.82,1.01-3.92.34-.55.8-1,1.38-1.33.58-.33,1.23-.5,1.97-.5,1.75,0,2.62.73,2.62,2.19,0,.98-.35,1.66-1.05,2.05-.7.38-1.84.58-3.42.58h-.67c-.06.23-.1.53-.1.89ZM241.97,68.68c.9,0,1.53-.1,1.9-.29.37-.19.56-.53.56-1.01,0-.53-.33-.8-.99-.8-1.11,0-1.85.7-2.22,2.1h.75Z"></path><path class="st3" d="M248.85,73.51c-.71,0-1.26-.22-1.62-.67-.37-.45-.55-1.11-.55-2s.15-1.75.44-2.6c.29-.85.75-1.57,1.38-2.17.63-.6,1.36-.9,2.19-.9.42,0,.98.08,1.68.22l.34.08.8-3.47h1.74l-2.62,11.33h-1.68l.21-1.09c-.08.1-.18.21-.32.35-.14.14-.41.33-.82.56-.41.23-.79.35-1.17.35ZM252.39,66.87c-.65-.15-1.21-.22-1.68-.22s-.88.24-1.24.72c-.36.48-.62,1.04-.78,1.67-.17.63-.25,1.25-.25,1.85,0,.77.33,1.15.98,1.15.23,0,.53-.12.89-.37s.65-.49.89-.74l.35-.37.85-3.7Z"></path><path class="st3" d="M254.55,73.33l1.84-8h1.73l-1.84,8h-1.73ZM256.65,64.15l.43-1.87h1.76l-.43,1.87h-1.76Z"></path><path class="st3" d="M263.78,65.16c.65,0,1.13.19,1.45.58s.47.86.47,1.42-.11,1.29-.34,2.18l-.91,3.98h-1.73l.9-3.86c.19-.9.29-1.5.29-1.82s-.06-.57-.18-.74-.32-.26-.59-.26-.57.11-.89.33c-.32.22-.59.44-.8.66l-.3.34-1.23,5.34h-1.73l1.84-8h1.66l-.18,1.06c.08-.1.2-.21.34-.34.14-.13.41-.31.81-.54.4-.23.78-.34,1.13-.34Z"></path><path class="st3" d="M271.59,76.18c-.7.58-1.61.86-2.72.86-2.23,0-3.34-.71-3.34-2.14,0-.52.19-.96.56-1.31.37-.35.86-.68,1.46-.98-.19-.19-.29-.42-.29-.7s.08-.54.23-.79.31-.46.46-.61l.24-.22c-.74-.39-1.1-1.04-1.1-1.94s.3-1.65.9-2.27c.6-.62,1.39-.93,2.38-.93.43,0,.92.07,1.49.21l.27.06,2.35-.1-.34,1.42h-1.14c.1.25.14.56.14.94,0,.81-.31,1.52-.93,2.13-.62.61-1.43.91-2.43.91l-.61-.08c-.24.31-.35.55-.35.74s.1.31.3.38.63.15,1.3.24c.67.09,1.21.28,1.62.58.41.29.61.75.61,1.38,0,.9-.35,1.63-1.06,2.21ZM267.5,73.73c-.25.26-.38.53-.38.82s.13.53.39.74c.26.2.68.3,1.27.3s1.1-.12,1.54-.35c.44-.24.66-.59.66-1.07,0-.26-.1-.43-.29-.54-.19-.1-.59-.2-1.19-.29-.6-.09-1-.16-1.19-.22-.3.15-.57.35-.82.61ZM269.91,69.32c.49,0,.89-.17,1.18-.51.3-.34.45-.72.45-1.14,0-.73-.42-1.09-1.26-1.09-.47,0-.85.17-1.14.5-.29.34-.44.72-.44,1.16,0,.71.41,1.07,1.22,1.07Z"></path><path class="st3" d="M279.57,70.88c0,.36.12.64.37.84.25.2.55.3.91.3.77,0,1.53-.06,2.27-.19l.42-.08-.18,1.31c-.97.3-1.95.45-2.94.45-1.73,0-2.59-.86-2.59-2.59,0-1.51.34-2.82,1.01-3.92.34-.55.8-1,1.38-1.33.58-.33,1.23-.5,1.97-.5,1.75,0,2.62.73,2.62,2.19,0,.98-.35,1.66-1.05,2.05-.7.38-1.84.58-3.42.58h-.67c-.06.23-.1.53-.1.89ZM280.63,68.68c.9,0,1.53-.1,1.9-.29.37-.19.56-.53.56-1.01,0-.53-.33-.8-.99-.8-1.11,0-1.85.7-2.22,2.1h.75Z"></path><path class="st3" d="M290.55,65.16c.65,0,1.13.19,1.45.58s.47.86.47,1.42-.11,1.29-.34,2.18l-.91,3.98h-1.73l.9-3.86c.19-.9.29-1.5.29-1.82s-.06-.57-.18-.74-.32-.26-.59-.26-.57.11-.89.33c-.32.22-.59.44-.8.66l-.3.34-1.23,5.34h-1.73l1.84-8h1.66l-.18,1.06c.08-.1.2-.21.34-.34.14-.13.41-.31.81-.54.4-.23.78-.34,1.13-.34Z"></path><path class="st3" d="M302.05,65.16c1.53,0,2.29.84,2.29,2.53,0,.98-.15,1.9-.45,2.77s-.77,1.59-1.41,2.17-1.4.87-2.27.87c-.96,0-1.97-.12-3.04-.35l-.56-.11,2.53-11.02h1.74l-.96,4.14c.25-.25.58-.47,1.01-.68s.8-.31,1.12-.31ZM298.61,71.84c.59.12,1.1.18,1.54.18s.83-.16,1.15-.47.57-.7.74-1.16c.34-.94.51-1.78.51-2.53,0-.37-.07-.67-.21-.89-.14-.22-.37-.33-.7-.33s-.65.09-.98.26c-.33.17-.6.34-.8.51l-.3.27-.96,4.16Z"></path><path class="st3" d="M307.35,73.51c-.74,0-1.28-.24-1.63-.71-.35-.47-.53-1.07-.53-1.79s.08-1.4.25-2.04c.17-.64.4-1.25.71-1.83.31-.58.73-1.06,1.27-1.42.54-.37,1.14-.55,1.82-.55.6,0,1.6.12,3.01.35l.67.11-1.2,5.18-.43,2.5-1.71.06c.12-.77.2-1.25.24-1.46-.5.66-1.07,1.14-1.71,1.42-.26.12-.51.18-.75.18ZM310.93,66.87c-.73-.16-1.3-.24-1.73-.24s-.83.24-1.2.72c-.7.89-1.06,2.05-1.06,3.49,0,.39.07.69.22.89.14.2.37.3.67.3s.64-.14,1-.42c.36-.28.67-.57.91-.86l.37-.43.82-3.44Z"></path><path class="st3" d="M313.08,73.33l2.62-11.33h1.73l-2.61,11.33h-1.74Z"></path><path class="st3" d="M319.3,73.51c-.74,0-1.28-.24-1.63-.71-.35-.47-.53-1.07-.53-1.79s.08-1.4.25-2.04c.17-.64.4-1.25.71-1.83.31-.58.73-1.06,1.27-1.42.54-.37,1.14-.55,1.82-.55.6,0,1.6.12,3.01.35l.67.11-1.2,5.18-.43,2.5-1.71.06c.12-.77.2-1.25.24-1.46-.5.66-1.07,1.14-1.71,1.42-.26.12-.51.18-.75.18ZM322.88,66.87c-.73-.16-1.3-.24-1.73-.24s-.83.24-1.2.72c-.7.89-1.06,2.05-1.06,3.49,0,.39.07.69.22.89.14.2.37.3.67.3s.64-.14,1-.42c.36-.28.67-.57.91-.86l.37-.43.82-3.44Z"></path><path class="st3" d="M330.61,65.16c.65,0,1.13.19,1.45.58s.47.86.47,1.42-.11,1.29-.34,2.18l-.91,3.98h-1.73l.9-3.86c.19-.9.29-1.5.29-1.82s-.06-.57-.18-.74-.32-.26-.59-.26-.57.11-.89.33c-.32.22-.59.44-.8.66l-.3.34-1.23,5.34h-1.73l1.84-8h1.66l-.18,1.06c.08-.1.2-.21.34-.34.14-.13.41-.31.81-.54.4-.23.78-.34,1.13-.34Z"></path><path class="st3" d="M337.05,66.64c-.42,0-.74.11-.98.32-.24.21-.36.45-.36.72s.09.45.26.56c.17.11.49.23.94.36.46.13.79.24,1.01.33.21.09.43.2.64.34.38.25.58.67.58,1.26,0,.97-.33,1.71-.98,2.22s-1.5.76-2.56.76c-.81,0-1.58-.12-2.32-.35l-.35-.11.32-1.3c1.01.19,1.82.29,2.42.29,1.14,0,1.71-.39,1.71-1.17,0-.2-.08-.35-.26-.45s-.56-.22-1.18-.38-1.1-.38-1.45-.65c-.35-.27-.53-.67-.53-1.19,0-.93.31-1.66.94-2.21.63-.54,1.4-.82,2.32-.82s1.69.11,2.42.32l.35.1-.32,1.3c-1.06-.16-1.93-.24-2.62-.24Z"></path></g></svg>