<?xml version="1.0" encoding="UTF-8"?> <svg xmlns="http://www.w3.org/2000/svg" id="Laag_1" data-name="Laag 1" viewBox="0 0 50 50"><defs><style> .cls-1 { stroke-width: .99px; } .cls-1, .cls-2, .cls-3 { stroke: #000; stroke-miterlimit: 10; } .cls-1, .cls-3 { fill: none; } .cls-2 { fill: #fff; } </style></defs><g><path class="cls-3" d="M37.39,9.05c1.17-1.17,3.07-1.17,4.24,0"></path><path class="cls-3" d="M35.98,7.64c1.95-1.95,5.12-1.95,7.07,0"></path><path class="cls-3" d="M34.56,6.22c2.73-2.73,7.17-2.73,9.9,0"></path></g><g><circle class="cls-1" cx="39.51" cy="17.21" r="5.89"></circle><circle cx="39.51" cy="17.21" r="1.09"></circle></g><path class="cls-3" d="M34.91,32.42s-1.95.29-2.58.62-7.14.51-7.14.51c-.32.36-.6.89-.6.89"></path><path class="cls-3" d="M23.74,38.09c1.09-.42,6.67-.88,6.67-.88"></path><path class="cls-3" d="M21.21,41.64c.55-.51,2.06-.66,2.06-.66l3.12-.23"></path><rect class="cls-2" x="11.49" y="19.26" width="30.48" height="16.26" rx="2.83" ry="2.83" transform="translate(-11.43 24.46) rotate(-41.31)"></rect><polygon class="cls-1" points="23.18 38.14 15.81 29.63 32 15.04 39.37 23.55 23.18 38.14"></polygon><path class="cls-2" d="M-7.11,47.04c.45-.21,9.32-3.56,9.32-3.56,0,0,13.59.61,15.66-.1,2.58-.51,5.4-.02,6.25-1.96,2.43-.55,4.8-.18,4.99-3.71,3.44-.79,3.31-1.3,3.71-2.32s.79-2.47.79-2.47c0,0,3.22-.64,4.05-.81s.87-2.06.34-2.14c-.44-.5-1.74-1.34-4.18-.92-2.24-.6-3.72-.23-4.28-.36-.62-.42-4.12-.04-4.12-.04,0,0-2.88-1.1-4.55-.9-1.42-.37-2.61-.72-3.44-.56-.52-.48-.87-1.23,0-1.87s6.88-3.33,5.5-6.62c.19-1.15-.4-1.01-.83-.71s-1.94,1.53-2.24,1.62-1.79-.14-2.72.6-5.04,1.73-6.22,2.69S2.73,26.5-.95,29.38c-3.68,2.88-9.7,3.83-9.7,3.83"></path><polyline class="cls-1" points="27.37 20.88 29.66 21.07 29.87 23.28 32.16 23.47 32.38 25.68 35.07 25.45"></polyline></svg> 